<?xml version="1.0" encoding="UTF-8"?>
<!-- Created with Inkscape (http://www.inkscape.org/) -->
<svg width="65%" version="1.1" viewBox="0 0 31.698 31.831">
 <g transform="translate(347.53 -306.41)">
  <g transform="translate(10.758 -.46772)" fill="#fff">
   <path d="m-346.51 338.71c-0.49112 0-1.9172-4.6176-2.2645-4.9649-0.34728-0.34727-4.9649-1.7734-4.9649-2.2645s4.6176-1.9172 4.9649-2.2645c0.34727-0.34727 1.7734-4.9648 2.2645-4.9648s1.9172 4.6176 2.2645 4.9648c0.34727 0.34728 4.9648 1.7734 4.9648 2.2645s-4.6176 1.9172-4.9648 2.2645c-0.34728 0.34728-1.7734 4.9649-2.2645 4.9649z" style="paint-order:stroke markers fill"/>
   <path d="m-333.82 330.09c-0.49112 0-1.9172-4.6176-2.2645-4.9648-0.34728-0.34728-4.9648-1.7734-4.9648-2.2645s4.6176-1.9172 4.9648-2.2645c0.34727-0.34728 1.7734-4.9649 2.2645-4.9649s1.9172 4.6176 2.2645 4.9649c0.34727 0.34727 4.9648 1.7734 4.9648 2.2645s-4.6176 1.9172-4.9648 2.2645c-0.34728 0.34727-1.7734 4.9648-2.2645 4.9648z" style="paint-order:stroke markers fill"/>
   <path d="m-351.06 321.33c-0.49112 0-1.9172-4.6176-2.2645-4.9649-0.34728-0.34727-4.9649-1.7734-4.9649-2.2645 0-0.49112 4.6176-1.9172 4.9649-2.2645 0.34727-0.34728 1.7734-4.9649 2.2645-4.9649s1.9172 4.6176 2.2645 4.9649c0.34727 0.34727 4.9648 1.7734 4.9648 2.2645 0 0.49113-4.6176 1.9172-4.9648 2.2645-0.34728 0.34728-1.7734 4.9649-2.2645 4.9649z" style="paint-order:stroke markers fill"/>
  </g>
 </g>
</svg>
