<svg version="1.1" viewBox="0 0 33.442 24.158">
 <g transform="translate(-33.161 -209.73)">
  <g transform="translate(307.66 -50.826)" fill="#fff">
   <circle cx="-263.41" cy="272.99" r="4.6104"/>
   <circle cx="-254.82" cy="277.8" r="2.9734"/>
   <circle cx="-251.78" cy="268.11" r="2.372"/>
   <circle cx="-259.03" cy="266.14" r="1.6036"/>
   <circle cx="-242.29" cy="279" r="1.2361"/>
   <circle cx="-264.48" cy="282.25" r="2.4722"/>
   <circle cx="-272.43" cy="268.41" r="2.0713"/>
   <path transform="matrix(1.1173 -.024078 .024078 1.1173 55.797 -7.0133)" d="m-275.58 249.62c-0.27011-7e-3 -0.98762-2.5674-1.1736-2.7634-0.18598-0.19603-2.7049-1.0472-2.6978-1.3173 7e-3 -0.27011 2.5674-0.98762 2.7634-1.1736 0.19602-0.18597 1.0472-2.7049 1.3173-2.6978 0.27011 7e-3 0.98763 2.5674 1.1736 2.7634 0.18597 0.19602 2.7049 1.0472 2.6978 1.3173-7e-3 0.27011-2.5674 0.98763-2.7634 1.1736-0.19603 0.18597-1.0472 2.7049-1.3173 2.6978z" style="paint-order:stroke markers fill"/>
   <path transform="matrix(.61379 -.013227 .013227 .61379 -101.25 108.58)" d="m-275.58 249.62c-0.27011-7e-3 -0.98762-2.5674-1.1736-2.7634-0.18598-0.19603-2.7049-1.0472-2.6978-1.3173 7e-3 -0.27011 2.5674-0.98762 2.7634-1.1736 0.19602-0.18597 1.0472-2.7049 1.3173-2.6978 0.27011 7e-3 0.98763 2.5674 1.1736 2.7634 0.18597 0.19602 2.7049 1.0472 2.6978 1.3173-7e-3 0.27011-2.5674 0.98763-2.7634 1.1736-0.19603 0.18597-1.0472 2.7049-1.3173 2.6978z" style="paint-order:stroke markers fill"/>
   <path transform="matrix(.6316 -.013611 .013611 .6316 -100.93 119.86)" d="m-275.58 249.62c-0.27011-7e-3 -0.98762-2.5674-1.1736-2.7634-0.18598-0.19603-2.7049-1.0472-2.6978-1.3173 7e-3 -0.27011 2.5674-0.98762 2.7634-1.1736 0.19602-0.18597 1.0472-2.7049 1.3173-2.6978 0.27011 7e-3 0.98763 2.5674 1.1736 2.7634 0.18597 0.19602 2.7049 1.0472 2.6978 1.3173-7e-3 0.27011-2.5674 0.98763-2.7634 1.1736-0.19603 0.18597-1.0472 2.7049-1.3173 2.6978z" style="paint-order:stroke markers fill"/>
  </g>
 </g>
</svg>
