<svg version="1.1" width="75%" viewBox="0 0 34 25" xmlns="http://www.w3.org/2000/svg">
 <g transform="translate(-33.161 -209.73)">
  <g>
   <g fill="#fff000">
    <circle cx="44.252" cy="222.17" r="4.6104"/>
    <circle cx="52.838" cy="226.98" r="2.9734"/>
    <circle cx="55.878" cy="217.29" r="2.372"/>
    <circle cx="48.629" cy="215.32" r="1.6036"/>
    <circle cx="65.366" cy="228.18" r="1.2361"/>
    <circle cx="43.183" cy="231.42" r="2.4722"/>
    <circle cx="35.232" cy="217.59" r="2.0713"/>
   </g>
   <g fill="#ebc988">
    <path transform="matrix(1.1173 -.024078 .024078 1.1173 363.46 -57.839)" d="m-275.58 249.62c-0.27011-7e-3 -0.98762-2.5674-1.1736-2.7634-0.18598-0.19603-2.7049-1.0472-2.6978-1.3173 7e-3 -0.27011 2.5674-0.98762 2.7634-1.1736 0.19602-0.18597 1.0472-2.7049 1.3173-2.6978 0.27011 7e-3 0.98763 2.5674 1.1736 2.7634 0.18597 0.19602 2.7049 1.0472 2.6978 1.3173-7e-3 0.27011-2.5674 0.98763-2.7634 1.1736-0.19603 0.18597-1.0472 2.7049-1.3173 2.6978z" style="paint-order:stroke markers fill"/>
    <path transform="matrix(.61379 -.013227 .013227 .61379 206.4 57.759)" d="m-275.58 249.62c-0.27011-7e-3 -0.98762-2.5674-1.1736-2.7634-0.18598-0.19603-2.7049-1.0472-2.6978-1.3173 7e-3 -0.27011 2.5674-0.98762 2.7634-1.1736 0.19602-0.18597 1.0472-2.7049 1.3173-2.6978 0.27011 7e-3 0.98763 2.5674 1.1736 2.7634 0.18597 0.19602 2.7049 1.0472 2.6978 1.3173-7e-3 0.27011-2.5674 0.98763-2.7634 1.1736-0.19603 0.18597-1.0472 2.7049-1.3173 2.6978z" style="paint-order:stroke markers fill"/>
    <path transform="matrix(.6316 -.013611 .013611 .6316 206.73 69.03)" d="m-275.58 249.62c-0.27011-7e-3 -0.98762-2.5674-1.1736-2.7634-0.18598-0.19603-2.7049-1.0472-2.6978-1.3173 7e-3 -0.27011 2.5674-0.98762 2.7634-1.1736 0.19602-0.18597 1.0472-2.7049 1.3173-2.6978 0.27011 7e-3 0.98763 2.5674 1.1736 2.7634 0.18597 0.19602 2.7049 1.0472 2.6978 1.3173-7e-3 0.27011-2.5674 0.98763-2.7634 1.1736-0.19603 0.18597-1.0472 2.7049-1.3173 2.6978z" style="paint-order:stroke markers fill"/>
   </g>
  </g>
 </g>
</svg>
